<!DOCTYPE svg PUBLIC "-//W3C//DTD SVG 20010904//EN" "http://www.w3.org/TR/2001/REC-SVG-20010904/DTD/svg10.dtd">
<svg version="1.0" xmlns="http://www.w3.org/2000/svg" width="45px" height="45px" viewBox="0 0 450 450" preserveAspectRatio="xMidYMid meet">
<g id="layer101" fill="#8e8e93" stroke="none">
 <path d="M333 389 l-61 -62 -43 17 c-52 21 -102 14 -157 -21 -56 -37 -72 -69 -72 -147 0 -77 14 -104 74 -147 66 -48 179 -36 229 25 46 55 58 127 33 187 l-15 34 67 67 c65 66 65 68 47 88 -10 11 -23 20 -29 20 -6 0 -39 -28 -73 -61z m-93 -105 c37 -23 60 -64 60 -111 0 -31 -8 -49 -34 -79 -32 -37 -36 -39 -94 -39 -68 1 -96 20 -122 83 -17 44 2 104 44 138 37 29 104 32 146 8z"/>
 </g>

</svg>